<?xml version="1.0" encoding="UTF-8"?>
<svg xmlns="http://www.w3.org/2000/svg" viewBox="0 0 96 96" shape-rendering="crispEdges">
  <!-- Minecraft 风格像素人 - 跳舞状态 -->
  <defs>
    <style>
      .skin { fill: #d7b48a; }
      .hair { fill: #3b2f2f; }
      .shirt { fill: #3b82f6; }
      .pants { fill: #374151; }
      .eye { fill: #111827; }
      .white { fill: #ffffff; }
    </style>
  </defs>

  <!-- 头部 32x32 区域 - 稍微倾斜 -->
  <rect x="30" y="2" width="32" height="32" class="skin"/>
  <!-- 头发上沿 -->
  <rect x="30" y="2" width="32" height="8" class="hair"/>
  <!-- 刘海 -->
  <rect x="30" y="10" width="10" height="6" class="hair"/>
  <rect x="52" y="10" width="10" height="6" class="hair"/>
  <!-- 眼白 -->
  <rect x="40" y="18" width="6" height="4" class="white"/>
  <rect x="56" y="18" width="6" height="4" class="white"/>
  <!-- 瞳孔 - 兴奋的眼神 -->
  <rect x="42" y="19" width="4" height="3" class="eye"/>
  <rect x="58" y="19" width="4" height="3" class="eye"/>

  <!-- 身体 40x32 - 稍微倾斜 -->
  <rect x="26" y="34" width="40" height="28" class="shirt"/>
  <!-- 裤子 40x20 -->
  <rect x="26" y="62" width="40" height="18" class="pants"/>

  <!-- 左手臂 - 向上伸展 -->
  <rect x="14" y="24" width="10" height="26" class="shirt"/>
  <rect x="14" y="48" width="10" height="6" class="skin"/>
  
  <!-- 右手臂 - 向侧面伸展 -->
  <rect x="72" y="32" width="10" height="26" class="shirt"/>
  <rect x="72" y="56" width="10" height="6" class="skin"/>

  <!-- 腿部 分割线 -->
  <rect x="44" y="62" width="4" height="18" fill="#111827" opacity=".25"/>

  <!-- 简单的像素阴影效果 -->
  <rect x="26" y="34" width="40" height="4" fill="#1f4fb3" opacity=".25"/>
  <rect x="26" y="76" width="40" height="4" fill="#000" opacity=".2"/>
  
  <!-- 动感线条效果 -->
  <rect x="8" y="20" width="2" height="8" fill="#fbbf24" opacity=".6"/>
  <rect x="12" y="16" width="2" height="6" fill="#fbbf24" opacity=".4"/>
  <rect x="84" y="28" width="2" height="8" fill="#fbbf24" opacity=".6"/>
  <rect x="88" y="24" width="2" height="6" fill="#fbbf24" opacity=".4"/>
</svg>
