<?xml version="1.0" encoding="UTF-8"?>
<svg xmlns="http://www.w3.org/2000/svg" viewBox="0 0 96 96" shape-rendering="crispEdges">
  <!-- Minecraft 风格像素人 - 走路状态 -->
  <defs>
    <style>
      .skin { fill: #d7b48a; }
      .hair { fill: #3b2f2f; }
      .shirt { fill: #3b82f6; }
      .pants { fill: #374151; }
      .eye { fill: #111827; }
      .white { fill: #ffffff; }
    </style>
  </defs>

  <!-- 头部 32x32 区域 -->
  <rect x="32" y="4" width="32" height="32" class="skin"/>
  <!-- 头发上沿 -->
  <rect x="32" y="4" width="32" height="8" class="hair"/>
  <!-- 刘海 -->
  <rect x="32" y="12" width="10" height="6" class="hair"/>
  <rect x="54" y="12" width="10" height="6" class="hair"/>
  <!-- 眼白 -->
  <rect x="42" y="20" width="6" height="4" class="white"/>
  <rect x="58" y="20" width="6" height="4" class="white"/>
  <!-- 瞳孔 - 专注向前看 -->
  <rect x="46" y="21" width="2" height="2" class="eye"/>
  <rect x="62" y="21" width="2" height="2" class="eye"/>

  <!-- 身体 40x32 -->
  <rect x="28" y="36" width="40" height="28" class="shirt"/>
  <!-- 裤子 40x20 -->
  <rect x="28" y="64" width="40" height="18" class="pants"/>

  <!-- 左手臂 - 向前摆动 -->
  <rect x="22" y="34" width="10" height="26" class="shirt"/>
  <rect x="22" y="58" width="10" height="6" class="skin"/>
  
  <!-- 右手臂 - 向后摆动 -->
  <rect x="64" y="42" width="10" height="26" class="shirt"/>
  <rect x="64" y="66" width="10" height="6" class="skin"/>

  <!-- 左腿 - 向前迈步 -->
  <rect x="38" y="64" width="8" height="20" class="pants"/>
  
  <!-- 右腿 - 支撑腿 -->
  <rect x="50" y="64" width="8" height="18" class="pants"/>

  <!-- 腿部分割线 -->
  <rect x="46" y="64" width="4" height="18" fill="#111827" opacity=".25"/>

  <!-- 简单的像素阴影效果 -->
  <rect x="28" y="36" width="40" height="4" fill="#1f4fb3" opacity=".25"/>
  <rect x="28" y="78" width="40" height="4" fill="#000" opacity=".2"/>
</svg>
