<?xml version="1.0" encoding="UTF-8"?>
<svg xmlns="http://www.w3.org/2000/svg" viewBox="0 0 96 96" shape-rendering="crispEdges">
  <!-- Minecraft 风格像素人 - 拖动状态（张大嘴巴/惊讶表情） -->
  <defs>
    <style>
      .skin { fill: #d7b48a; }
      .hair { fill: #3b2f2f; }
      .shirt { fill: #3b82f6; }
      .pants { fill: #374151; }
      .eye { fill: #111827; }
      .white { fill: #ffffff; }
      .mouth { fill: #111827; }
      .mouth-inner { fill: #800000; }
    </style>
  </defs>

  <!-- 头部 32x32 区域 -->
  <rect x="32" y="4" width="32" height="32" class="skin"/>
  <!-- 头发上沿 -->
  <rect x="32" y="4" width="32" height="8" class="hair"/>
  <!-- 刘海 -->
  <rect x="32" y="12" width="10" height="6" class="hair"/>
  <rect x="54" y="12" width="10" height="6" class="hair"/>
  
  <!-- 惊讶的大眼睛 - 比正常状态更大 -->
  <rect x="40" y="18" width="8" height="8" class="white"/>
  <rect x="56" y="18" width="8" height="8" class="white"/>
  <!-- 瞳孔 - 更大 -->
  <rect x="42" y="20" width="4" height="4" class="eye"/>
  <rect x="58" y="20" width="4" height="4" class="eye"/>
  
  <!-- 张大的嘴巴 - 这是重点！ -->
  <!-- 外轮廓 -->
  <rect x="42" y="28" width="12" height="6" class="mouth"/>
  <!-- 内部红色 -->
  <rect x="44" y="29" width="8" height="4" class="mouth-inner"/>
  <!-- 牙齿效果 -->
  <rect x="44" y="29" width="2" height="1" class="white"/>
  <rect x="48" y="29" width="2" height="1" class="white"/>
  <rect x="52" y="29" width="2" height="1" class="white"/>
  
  <!-- 身体 40x32 - 稍微前倾的感觉 -->
  <rect x="28" y="36" width="40" height="28" class="shirt"/>
  <!-- 裤子 40x20 -->
  <rect x="28" y="64" width="40" height="18" class="pants"/>

  <!-- 手臂 - 拖动时向前伸展 -->
  <!-- 左臂向前 -->
  <rect x="16" y="38" width="12" height="8" class="shirt"/>
  <rect x="14" y="46" width="8" height="8" class="shirt"/>
  <rect x="12" y="54" width="8" height="6" class="skin"/>
  
  <!-- 右臂向前 -->
  <rect x="68" y="38" width="12" height="8" class="shirt"/>
  <rect x="74" y="46" width="8" height="8" class="shirt"/>
  <rect x="76" y="54" width="8" height="6" class="skin"/>

  <!-- 腿部 分割线 -->
  <rect x="46" y="64" width="4" height="18" fill="#111827" opacity=".25"/>

  <!-- 动态感阴影效果 -->
  <rect x="28" y="36" width="40" height="4" fill="#1f4fb3" opacity=".35"/>
  <rect x="28" y="78" width="40" height="4" fill="#000" opacity=".3"/>
  
  <!-- 额外的拖动效果线条 -->
  <rect x="20" y="42" width="2" height="2" fill="#ffffff" opacity=".6"/>
  <rect x="74" y="42" width="2" height="2" fill="#ffffff" opacity=".6"/>
  <rect x="18" y="48" width="2" height="2" fill="#ffffff" opacity=".4"/>
  <rect x="76" y="48" width="2" height="2" fill="#ffffff" opacity=".4"/>
</svg>
